HIERARCHY
ROOT Hips
{
	OFFSET -0.001795 -0.223333 0.028219
	CHANNELS 6 Xposition Yposition Zposition Zrotation Yrotation Xrotation 
	JOINT LeftUpLeg
	{
		OFFSET 0.069520 -0.091406 -0.006815
		CHANNELS 3 Zrotation Yrotation Xrotation
		JOINT LeftLeg
		{
			OFFSET 0.034277 -0.375199 -0.004496
			CHANNELS 3 Zrotation Yrotation Xrotation
			JOINT LeftFoot
			{
				OFFSET -0.013596 -0.397961 -0.043693
				CHANNELS 3 Zrotation Yrotation Xrotation
				JOINT LeftToe
				{
					OFFSET 0.026358 -0.055791 0.119288
					CHANNELS 3 Zrotation Yrotation Xrotation
					End Site
					{
						OFFSET 0.000000 0.000000 0.000000
					}
				}
			}
		}
	}
	JOINT RightUpLeg
	{
		OFFSET -0.067670 -0.090522 -0.004320
		CHANNELS 3 Zrotation Yrotation Xrotation
		JOINT RightLeg
		{
			OFFSET -0.038290 -0.382569 -0.008850
			CHANNELS 3 Zrotation Yrotation Xrotation
			JOINT RightFoot
			{
				OFFSET 0.015774 -0.398415 -0.042312
				CHANNELS 3 Zrotation Yrotation Xrotation
				JOINT RightToe
				{
					OFFSET -0.025372 -0.048144 0.123348
					CHANNELS 3 Zrotation Yrotation Xrotation
					End Site
					{
						OFFSET 0.000000 0.000000 0.000000
					}
				}
			}
		}
	}
	JOINT Spine
	{
		OFFSET -0.002533 0.108963 -0.026696
		CHANNELS 3 Zrotation Yrotation Xrotation
		JOINT Spine1
		{
			OFFSET 0.005487 0.135180 0.001092
			CHANNELS 3 Zrotation Yrotation Xrotation
			JOINT Spine2
			{
				OFFSET 0.001457 0.052922 0.025425
				CHANNELS 3 Zrotation Yrotation Xrotation
				JOINT Neck
				{
					OFFSET -0.002778 0.213870 -0.042857
					CHANNELS 3 Zrotation Yrotation Xrotation
					JOINT Head
					{
						OFFSET 0.005152 0.064970 0.051349
						CHANNELS 3 Zrotation Yrotation Xrotation
						End Site
						{
							OFFSET 0.000000 0.000000 0.000000
						}
					}
				}
				JOINT LeftShoulder
				{
					OFFSET 0.078845 0.121749 -0.034090
					CHANNELS 3 Zrotation Yrotation Xrotation
					JOINT LeftArm
					{
						OFFSET 0.090977 0.030469 -0.008868
						CHANNELS 3 Zrotation Yrotation Xrotation
						JOINT LeftForeArm
						{
							OFFSET 0.259612 -0.012772 -0.027456
							CHANNELS 3 Zrotation Yrotation Xrotation
							JOINT LeftHand
							{
								OFFSET 0.249234 0.008986 -0.001171
								CHANNELS 3 Zrotation Yrotation Xrotation
								End Site
								{
									OFFSET 0.000000 0.000000 0.000000
								}
							}
						}
					}
				}
				JOINT RightShoulder
				{
					OFFSET -0.081759 0.118833 -0.038615
					CHANNELS 3 Zrotation Yrotation Xrotation
					JOINT RightArm
					{
						OFFSET -0.096012 0.032551 -0.009143
						CHANNELS 3 Zrotation Yrotation Xrotation
						JOINT RightForeArm
						{
							OFFSET -0.253742 -0.013329 -0.021401
							CHANNELS 3 Zrotation Yrotation Xrotation
							JOINT RightHand
							{
								OFFSET -0.255298 0.007772 -0.005559
								CHANNELS 3 Zrotation Yrotation Xrotation
								End Site
								{
									OFFSET 0.000000 0.000000 0.000000
								}
							}
						}
					}
				}
			}
		}
	}
}
MOTION
Frames: 14
Frame Time: 0.050000
-0.015071 0.287071 0.080934 -1.428020 -11.668435 -14.692003 22.278180 18.868625 -85.439764 -11.999559 35.392796 144.573706 12.531475 45.026944 -33.283477 0.000000 0.000000 0.000000 -32.301957 -11.028866 -92.009599 29.931776 -46.033611 111.623243 -18.433039 -57.453879 -21.528120 0.000000 0.000000 0.000000 9.534416 -6.278499 86.373431 -5.288497 1.431122 -35.368851 -5.007129 3.217919 27.867412 21.742534 -19.040553 -8.735858 0.000000 0.000000 0.000000 6.778206 -31.705523 7.722510 2.072130 -21.477027 -1.149374 75.081828 -49.416633 -39.755820 0.000000 0.000000 0.000000 6.127549 17.397945 6.551347 -6.043716 32.404339 -2.826560 -76.789579 53.969400 -42.928750 0.000000 0.000000 0.000000 
-0.015539 0.277760 0.079888 -1.209561 -11.823456 -15.028779 21.853814 19.004475 -86.821245 -11.476258 35.244039 146.168298 12.299635 44.914968 -33.716059 0.000000 0.000000 0.000000 -32.833711 -11.508342 -92.624612 30.246307 -46.894885 111.857961 -17.286384 -57.448607 -24.305036 0.000000 0.000000 0.000000 9.543809 -6.226238 86.851512 -5.418252 1.444755 -35.347296 -4.855731 3.140848 28.368218 21.569611 -19.443526 -7.715755 0.000000 0.000000 0.000000 7.033147 -32.329618 7.727293 2.200091 -21.267801 -1.117631 74.716887 -48.501216 -38.797230 0.000000 0.000000 0.000000 5.959400 18.130954 6.772572 -6.876273 31.847848 -2.871080 -73.370154 52.375311 -39.451842 0.000000 0.000000 0.000000 
-0.016126 0.268875 0.078866 -0.859840 -12.267798 -15.210273 21.636094 19.599486 -88.175671 -11.407106 36.413245 147.263463 12.389524 46.201066 -33.646531 0.000000 0.000000 0.000000 -33.461602 -11.893642 -93.482141 30.707387 -47.857368 111.802423 -16.221021 -57.345731 -27.034372 0.000000 0.000000 0.000000 9.292512 -5.752471 87.419534 -5.099200 1.372426 -35.305604 -5.186092 3.454702 28.370918 20.995746 -19.125253 -7.020978 0.000000 0.000000 0.000000 8.000439 -32.255625 7.472110 1.983527 -21.659083 -1.156668 75.018197 -47.489661 -38.301842 0.000000 0.000000 0.000000 6.124089 18.463985 6.944312 -7.219994 31.528316 -2.857672 -71.234822 50.726455 -36.707134 0.000000 0.000000 0.000000 
-0.017023 0.261497 0.078052 -0.752366 -12.299578 -15.493201 21.253263 19.590838 -89.333488 -11.107279 36.876116 148.437923 12.428446 47.094409 -33.821870 0.000000 0.000000 0.000000 -33.965827 -12.425405 -93.868142 31.402388 -48.872014 111.553643 -15.472262 -57.504265 -28.940164 0.000000 0.000000 0.000000 9.094561 -5.585159 87.872902 -4.719290 1.310831 -35.177865 -5.415293 3.727563 28.326897 20.730721 -19.150323 -6.283413 0.000000 0.000000 0.000000 8.505863 -32.961326 7.477033 2.429344 -21.658980 -1.172482 74.856869 -46.144846 -37.281153 0.000000 0.000000 0.000000 5.868576 18.788453 7.020158 -7.336635 31.281611 -2.810209 -69.615431 48.949954 -34.285494 0.000000 0.000000 0.000000 
-0.018386 0.256760 0.077476 -0.677077 -12.374374 -15.698421 21.086718 19.694635 -90.017342 -10.897336 37.102185 149.210805 12.456740 47.659399 -33.904556 0.000000 0.000000 0.000000 -34.130507 -12.560802 -94.072784 31.902809 -49.545853 111.345169 -14.792502 -57.764163 -30.718174 0.000000 0.000000 0.000000 8.800534 -5.306598 88.256503 -4.833545 1.318803 -35.097353 -5.484402 3.743626 28.325645 20.413214 -19.050970 -5.804821 0.000000 0.000000 0.000000 9.170638 -33.321892 7.354493 2.866733 -21.595909 -1.181531 74.246668 -45.194784 -36.203411 0.000000 0.000000 0.000000 5.860366 19.282530 7.189702 -7.845677 30.946084 -2.834640 -68.150257 47.064343 -32.080760 0.000000 0.000000 0.000000 
-0.019954 0.253142 0.076936 -0.772535 -12.022504 -16.296669 20.837738 19.199731 -90.299567 -10.722258 36.083072 149.175603 12.535771 48.455225 -33.997549 0.000000 0.000000 0.000000 -34.235102 -12.790395 -93.442215 32.693054 -50.284820 110.963846 -13.993743 -58.222773 -32.523715 0.000000 0.000000 0.000000 8.470019 -5.252072 88.532713 -4.478852 1.280143 -34.798055 -5.534636 4.172252 28.109716 20.454192 -18.976405 -6.075718 0.000000 0.000000 0.000000 9.374992 -34.275995 7.467431 3.370003 -21.529900 -1.188489 73.204426 -44.515897 -35.229023 0.000000 0.000000 0.000000 6.163570 19.550609 7.359187 -7.952953 30.526270 -2.764722 -66.893082 45.412243 -30.149678 0.000000 0.000000 0.000000 
-0.021192 0.251390 0.076049 -0.766331 -11.812133 -16.565890 20.836946 18.960889 -90.113989 -10.449328 32.485695 148.056079 11.740964 47.021746 -35.712846 0.000000 0.000000 0.000000 -34.372387 -12.980780 -93.016177 33.494461 -50.854127 110.302582 -13.344978 -58.562083 -34.005720 0.000000 0.000000 0.000000 8.156497 -5.141406 88.981923 -4.188041 1.205184 -35.677619 -5.640571 4.665994 28.255377 20.273461 -18.888915 -5.965070 0.000000 0.000000 0.000000 9.017562 -34.759334 7.652947 4.166057 -21.924412 -1.274478 71.765444 -44.742254 -34.773353 0.000000 0.000000 0.000000 6.814391 20.074730 7.728652 -8.102107 30.046633 -2.699100 -65.829609 43.743115 -28.376175 0.000000 0.000000 0.000000 
-0.021932 0.249919 0.074734 -0.779899 -11.521596 -17.084588 20.365253 18.198768 -90.034525 -10.228102 29.071327 146.511502 11.350334 47.711723 -36.956543 0.000000 0.000000 0.000000 -34.241057 -12.963856 -92.545941 33.609263 -50.912618 110.353356 -12.857118 -58.737777 -34.958900 0.000000 0.000000 0.000000 8.129954 -5.308984 89.132599 -4.084935 1.204694 -35.446515 -5.922500 4.756465 27.943661 20.363155 -18.723027 -6.502455 0.000000 0.000000 0.000000 9.181344 -35.273624 7.696498 4.401690 -22.456662 -1.338810 69.699104 -44.708573 -33.569348 0.000000 0.000000 0.000000 6.919828 19.944420 7.694554 -7.832814 30.088421 -2.653237 -65.647924 42.533793 -27.413498 0.000000 0.000000 0.000000 
-0.022353 0.250388 0.073159 -0.770355 -11.001462 -17.285963 20.397815 17.707924 -89.659555 -10.272005 26.710737 144.447482 10.661978 48.373933 -39.311186 0.000000 0.000000 0.000000 -33.942655 -12.968858 -92.075327 33.207606 -50.449692 110.739682 -12.318070 -58.762350 -35.933472 0.000000 0.000000 0.000000 7.794390 -5.302914 89.126100 -3.721761 1.149944 -35.896786 -5.918572 5.358280 28.112757 20.629830 -18.647194 -7.228577 0.000000 0.000000 0.000000 8.918461 -35.760346 7.876182 4.616748 -23.297812 -1.470075 68.283169 -45.512384 -33.493237 0.000000 0.000000 0.000000 7.443260 19.753918 7.789406 -7.826797 30.020552 -2.630408 -66.011964 42.519270 -27.526686 0.000000 0.000000 0.000000 
-0.022923 0.250375 0.071620 -0.799595 -10.421261 -17.746959 20.561086 17.327933 -89.436278 -10.479718 25.303052 142.364049 10.127642 50.632598 -41.216117 0.000000 0.000000 0.000000 -33.545527 -12.902884 -91.462128 32.660399 -49.925111 111.390204 -11.788233 -58.804557 -36.816867 0.000000 0.000000 0.000000 7.518429 -5.387924 89.089538 -3.464096 1.134581 -35.784813 -5.951773 5.901136 27.858644 20.673551 -18.627410 -7.340006 0.000000 0.000000 0.000000 8.188979 -36.208956 8.175971 5.207342 -23.890693 -1.590543 66.461251 -46.145489 -33.046456 0.000000 0.000000 0.000000 8.085622 19.911548 8.028576 -7.894397 29.408639 -2.524984 -66.011793 42.031811 -27.156838 0.000000 0.000000 0.000000 
-0.024031 0.249886 0.070064 -0.660216 -9.935645 -18.097285 21.077301 17.429774 -89.318559 -10.845382 26.266224 141.919529 10.202292 50.390847 -41.128122 0.000000 0.000000 0.000000 -33.138596 -12.819149 -91.184746 31.935530 -49.344799 112.224106 -11.252886 -58.793285 -37.790722 0.000000 0.000000 0.000000 7.384146 -5.537136 89.106665 -3.746145 1.193324 -36.130913 -6.012506 6.086362 28.056698 20.767523 -18.349153 -8.249145 0.000000 0.000000 0.000000 7.563915 -36.431992 8.378311 5.676948 -24.279526 -1.673219 65.865104 -47.148669 -33.477626 0.000000 0.000000 0.000000 8.446186 19.731595 8.050439 -7.529068 28.843753 -2.395314 -65.879145 42.470557 -27.390532 0.000000 0.000000 0.000000 
-0.025870 0.249041 0.068555 -0.609667 -9.151751 -18.466752 21.993876 17.640490 -89.056672 -11.382896 27.643161 141.281979 10.131980 49.856210 -41.657419 0.000000 0.000000 0.000000 -32.938292 -13.094505 -90.594412 31.829894 -49.234351 112.534247 -10.523624 -59.022865 -39.134126 0.000000 0.000000 0.000000 6.989022 -5.634715 89.210433 -3.473275 1.187680 -36.080712 -5.963791 6.819259 27.966951 21.486411 -18.460276 -9.460674 0.000000 0.000000 0.000000 7.311720 -36.830039 8.539249 6.324550 -24.680591 -1.796236 64.636706 -47.574447 -33.260207 0.000000 0.000000 0.000000 8.617482 19.782868 8.160547 -7.372022 27.793969 -2.204120 -65.664076 42.933071 -27.495473 0.000000 0.000000 0.000000 
-0.028103 0.247712 0.067062 -0.432117 -8.486794 -18.428965 23.126234 18.227677 -88.951295 -12.185005 29.611323 140.366436 9.939315 49.450268 -42.658259 0.000000 0.000000 0.000000 -32.509586 -13.180203 -90.552042 31.184633 -48.776275 113.309608 -9.541879 -59.084305 -41.175828 0.000000 0.000000 0.000000 6.507779 -5.530298 88.926140 -3.265835 1.173742 -36.223050 -5.989421 7.457399 28.211530 21.930174 -18.720782 -9.789216 0.000000 0.000000 0.000000 6.916536 -37.173461 8.732783 6.650121 -24.684069 -1.843189 64.399742 -48.224189 -33.729055 0.000000 0.000000 0.000000 9.033892 19.472546 8.201499 -7.541343 27.463823 -2.170575 -65.239182 43.430765 -27.571323 0.000000 0.000000 0.000000 
-0.030245 0.246821 0.065707 -0.212275 -7.638152 -18.679933 23.964255 18.341902 -88.727474 -12.844925 31.155144 139.547375 9.950264 49.090640 -43.021828 0.000000 0.000000 0.000000 -32.054292 -13.276390 -90.121819 30.299351 -48.082476 114.407360 -8.501812 -58.979749 -43.224284 0.000000 0.000000 0.000000 6.287266 -5.784988 88.823298 -3.641484 1.270260 -36.183308 -6.024699 7.380796 28.536362 21.924411 -18.811434 -9.733369 0.000000 0.000000 0.000000 6.940014 -37.330903 8.727167 7.492562 -24.518362 -1.872938 63.005840 -47.528920 -32.432940 0.000000 0.000000 0.000000 9.233693 19.305705 8.168904 -7.867920 26.750518 -2.094600 -65.079657 44.049290 -28.017098 0.000000 0.000000 0.000000 
